HIERARCHY
ROOT hip
{
  OFFSET 0.0 0.0 0.0
  CHANNELS 6 Xposition Yposition Zposition Zrotation Yrotation Xrotation
  JOINT abdomen
  {
    OFFSET 0.0 20.6881 -0.73152
    CHANNELS 3 Zrotation Xrotation Yrotation
    JOINT chest
    {
      OFFSET 0.0 11.7043 -0.48768
      CHANNELS 3 Zrotation Xrotation Yrotation
      JOINT neck
      {
        OFFSET 0.0 22.1894 -2.19456
        CHANNELS 3 Zrotation Xrotation Yrotation
        JOINT head
        {
          OFFSET -0.24384 7.07133 1.2192
          CHANNELS 3 Zrotation Xrotation Yrotation
          JOINT leftEye
          {
            OFFSET 4.14528 8.04674 8.04672
            CHANNELS 3 Zrotation Xrotation Yrotation
            End Site
            {
              OFFSET 1.0 0.0 0.0
            }
          }
          JOINT rightEye
          {
            OFFSET -3.6576 8.04674 8.04672
            CHANNELS 3 Zrotation Xrotation Yrotation
            End Site
            {
              OFFSET 1.0 0.0 0.0
            }
          }
        }
      }
      JOINT rCollar
      {
        OFFSET -2.68224 19.2634 -4.8768
        CHANNELS 3 Zrotation Xrotation Yrotation
        JOINT rShldr
        {
          OFFSET -8.77824 -1.95073 1.46304
          CHANNELS 3 Zrotation Xrotation Yrotation
          JOINT rForeArm
          {
            OFFSET -28.1742 -1.7115 0.48768
            CHANNELS 3 Zrotation Xrotation Yrotation
            JOINT rHand
            {
              OFFSET -22.5879 0.773209 7.07136
              CHANNELS 3 Zrotation Xrotation Yrotation
              JOINT rThumb1
              {
                OFFSET -1.2192 -0.487915 3.41376
                CHANNELS 3 Zrotation Xrotation Yrotation
                JOINT rThumb2
                {
                  OFFSET -3.37035 -0.52449 3.41376
                  CHANNELS 3 Zrotation Xrotation Yrotation
                  End Site
                  {
                    OFFSET -1.78271 -1.18214 1.43049
                  }
                }
              }
              JOINT rIndex1
              {
                OFFSET -7.75947 0.938293 5.60832
                CHANNELS 3 Zrotation Xrotation Yrotation
                JOINT rIndex2
                {
                  OFFSET -2.54057 -0.884171 1.56538
                  CHANNELS 3 Zrotation Xrotation Yrotation
                  End Site
                  {
                    OFFSET -1.62519 -0.234802 1.16502
                  }
                }
              }
              JOINT rMid1
              {
                OFFSET -8.24714 1.18213 3.41376
                CHANNELS 3 Zrotation Xrotation Yrotation
                JOINT rMid2
                {
                  OFFSET -3.10165 -0.590103 1.0647
                  CHANNELS 3 Zrotation Xrotation Yrotation
                  End Site
                  {
                    OFFSET -2.48547 -0.328903 0.83742
                  }
                }
              }
              JOINT rRing1
              {
                OFFSET -8.82822 0.546677 1.51678
                CHANNELS 3 Zrotation Xrotation Yrotation
                JOINT rRing2
                {
                  OFFSET -2.60934 -0.819778 -0.0198488
                  CHANNELS 3 Zrotation Xrotation Yrotation
                  End Site
                  {
                    OFFSET -2.33842 -0.294052 0.168128
                  }
                }
              }
              JOINT rPinky1
              {
                OFFSET -8.27202 -0.0477905 -0.4584
                CHANNELS 3 Zrotation Xrotation Yrotation
                JOINT rPinky2
                {
                  OFFSET -1.82734 -0.647385 -0.700984
                  CHANNELS 3 Zrotation Xrotation Yrotation
                  End Site
                  {
                    OFFSET -1.69225 -0.51767 -0.607171
                  }
                }
              }
            }
          }
        }
      }
      JOINT lCollar
      {
        OFFSET 2.68224 19.2634 -4.8768
        CHANNELS 3 Zrotation Xrotation Yrotation
        JOINT lShldr
        {
          OFFSET 8.77824 -1.95073 1.46304
          CHANNELS 3 Zrotation Xrotation Yrotation
          JOINT lForeArm
          {
            OFFSET 28.1742 -1.7115 0.48768
            CHANNELS 3 Zrotation Xrotation Yrotation
            JOINT lHand
            {
              OFFSET 22.5879 0.773209 7.07136
              CHANNELS 3 Zrotation Xrotation Yrotation
              JOINT lThumb1
              {
                OFFSET 1.2192 -0.487915 3.41376
                CHANNELS 3 Zrotation Xrotation Yrotation
                JOINT lThumb2
                {
                  OFFSET 3.37035 -0.52449 3.41376
                  CHANNELS 3 Zrotation Xrotation Yrotation
                  End Site
                  {
                    OFFSET 1.78271 -1.18214 1.43049
                  }
                }
              }
              JOINT lIndex1
              {
                OFFSET 7.75947 0.938293 5.60832
                CHANNELS 3 Zrotation Xrotation Yrotation
                JOINT lIndex2
                {
                  OFFSET 2.54057 -0.884171 1.56538
                  CHANNELS 3 Zrotation Xrotation Yrotation
                  End Site
                  {
                    OFFSET 1.62519 -0.234802 1.16502
                  }
                }
              }
              JOINT lMid1
              {
                OFFSET 8.24714 1.18213 3.41376
                CHANNELS 3 Zrotation Xrotation Yrotation
                JOINT lMid2
                {
                  OFFSET 3.10165 -0.590103 1.0647
                  CHANNELS 3 Zrotation Xrotation Yrotation
                  End Site
                  {
                    OFFSET 2.48547 -0.328903 0.83742
                  }
                }
              }
              JOINT lRing1
              {
                OFFSET 8.82822 0.546677 1.51678
                CHANNELS 3 Zrotation Xrotation Yrotation
                JOINT lRing2
                {
                  OFFSET 2.60934 -0.819778 -0.0198488
                  CHANNELS 3 Zrotation Xrotation Yrotation
                  End Site
                  {
                    OFFSET 2.33842 -0.294052 0.168128
                  }
                }
              }
              JOINT lPinky1
              {
                OFFSET 8.27202 -0.0477905 -0.4584
                CHANNELS 3 Zrotation Xrotation Yrotation
                JOINT lPinky2
                {
                  OFFSET 1.82734 -0.647385 -0.700984
                  CHANNELS 3 Zrotation Xrotation Yrotation
                  End Site
                  {
                    OFFSET 1.69225 -0.51767 -0.607171
                  }
                }
              }
            }
          }
        }
      }
    }
  }
  JOINT rButtock
  {
    OFFSET -8.77824 4.35084 1.2192
    CHANNELS 3 Zrotation Xrotation Yrotation
    JOINT rThigh
    {
      OFFSET 0.0 -1.70687 -2.19456
      CHANNELS 3 Zrotation Xrotation Yrotation
      JOINT rShin
      {
        OFFSET 0.0 -36.8199 0.73152
        CHANNELS 3 Zrotation Xrotation Yrotation
        JOINT rFoot
        {
          OFFSET 0.73152 -45.1104 -5.12064
          CHANNELS 3 Zrotation Xrotation Yrotation
          End Site
          {
            OFFSET -1.1221 -3.69964 12.103
          }
        }
      }
    }
  }
  JOINT lButtock
  {
    OFFSET 8.77824 4.35084 1.2192
    CHANNELS 3 Zrotation Xrotation Yrotation
    JOINT lThigh
    {
      OFFSET 0.0 -1.70687 -2.19456
      CHANNELS 3 Zrotation Xrotation Yrotation
      JOINT lShin
      {
        OFFSET 0.0 -36.8199 0.73152
        CHANNELS 3 Zrotation Xrotation Yrotation
        JOINT lFoot
        {
          OFFSET -0.73152 -45.1104 -5.12064
          CHANNELS 3 Zrotation Xrotation Yrotation
          End Site
          {
            OFFSET 1.1221 -3.69964 12.103
          }
        }
      }
    }
  }
}
MOTION
Frames: 9
Frame Time: 0.00833333
31.9796 84.704 9.30325 -3.7889 3.0995 6.2213 4.10408 7.81745 6.11157 2.46963 3.08023 1.75263 1.16693 5.58793 -3.94186 0.629178 24.3384 -7.67954 -0.0 0.0 0.0 -0.0 0.0 0.0 -5.67946e-14 -4.13499e-14 -1.63699e-13 34.3627 54.4743 40.3808 -17.8942 -54.8101 119.111 -0.395822 -17.604 -2.55584 -1.05731e-09 -6.11109e-10 -3.04837e-10 -1.82327e-09 -1.03698e-09 -5.43563e-10 -1.05732e-09 -6.11111e-10 -3.04856e-10 7.73091 5.47488 0.417314 -1.05731e-09 -6.11107e-10 -3.0484e-10 2.90554 0.965183 0.102902 -1.05731e-09 -6.11108e-10 -3.04835e-10 10.2786 0.731801 0.0259123 -1.05732e-09 -6.11108e-10 -3.04834e-10 2.22167 -0.733487 -0.20892 -5.6914e-14 -4.13455e-14 -1.63848e-13 -99.458 36.9592 27.9134 21.8486 -15.5315 -43.3821 0.124789 -10.0218 1.42316 8.62042e-11 7.42071e-11 1.65014e-10 1.46101e-10 1.2838e-10 2.84374e-10 8.6199e-11 7.42059e-11 1.65026e-10 -7.73091 5.47488 -0.417314 8.62068e-11 7.42088e-11 1.65014e-10 -2.90554 0.965183 -0.102902 8.61968e-11 7.42073e-11 1.65015e-10 -10.2786 0.731801 -0.0259123 8.62111e-11 7.42095e-11 1.6501e-10 -2.22167 -0.733487 0.20892 -2.03217e-16 0.0 -3.88251e-19 0.885231 -34.3544 -9.69048 -0.754259 54.128 1.17657 -1.48392 10.949 9.62159 2.03217e-16 0.0 3.88251e-19 -0.197595 -40.4636 -5.66681 0.951676 57.7187 -1.28708 0.386678 5.31649 -6.95704
32.3141 84.8732 9.44848 -2.6681 2.5779 6.5194 2.81252 7.79371 6.14388 2.48467 3.0981 1.73741 1.07973 5.4537 -3.85093 0.66533 24.3564 -7.51245 -0.0 0.0 0.0 -0.0 0.0 0.0 -8.56175e-14 3.77503e-15 -1.23261e-13 33.962 54.5127 40.875 -17.8761 -54.8215 119.152 -0.405644 -17.8112 -2.58798 -1.12237e-09 -8.10228e-10 -1.57288e-10 -1.93782e-09 -1.38327e-09 -2.8876e-10 -1.12238e-09 -8.10229e-10 -1.57306e-10 7.73091 5.47488 0.417314 -1.12238e-09 -8.10225e-10 -1.57293e-10 2.90554 0.965183 0.102902 -1.12237e-09 -8.10226e-10 -1.57286e-10 10.2786 0.731801 0.0259123 -1.12238e-09 -8.10227e-10 -1.57285e-10 2.22167 -0.733487 -0.20892 -8.57184e-14 3.77789e-15 -1.23387e-13 -99.2973 36.8807 27.8421 21.9269 -15.6484 -43.59 0.137089 -10.5313 1.49696 2.00435e-10 6.36309e-12 2.50962e-10 3.42404e-10 1.00202e-11 4.34948e-10 2.0043e-10 6.36307e-12 2.50974e-10 -7.73091 5.47488 -0.417314 2.00437e-10 6.36545e-12 2.50961e-10 -2.90554 0.965183 -0.102902 2.00426e-10 6.36426e-12 2.50963e-10 -10.2786 0.731801 -0.0259123 2.00441e-10 6.36626e-12 2.50958e-10 -2.22167 -0.733487 0.20892 -2.03217e-16 0.0 -3.88251e-19 -1.24738 -37.0815 -11.0407 -0.910207 57.3211 1.34183 -1.93415 14.1692 9.21825 2.03217e-16 0.0 3.88251e-19 -1.24027 -39.0299 -5.83666 0.830758 55.3448 -1.15648 0.296826 4.27383 -6.5468
32.6502 85.0144 9.62517 -1.5338 2.0969 6.7829 1.42434 7.70719 6.14967 2.50356 3.11877 1.71201 0.979331 5.29801 -3.76906 0.754738 24.3419 -7.37284 -0.0 0.0 0.0 -0.0 0.0 0.0 -7.37874e-14 4.05517e-14 -8.26261e-14 33.6143 54.5619 41.3196 -17.8255 -54.853 119.264 -0.414593 -17.999 -2.61714 -1.00409e-09 -7.91649e-10 -8.37661e-11 -1.73396e-09 -1.35354e-09 -1.59686e-10 -1.00411e-09 -7.91647e-10 -8.378e-11 7.73091 5.47488 0.417314 -1.0041e-09 -7.91643e-10 -8.37712e-11 2.90554 0.965183 0.102902 -1.00409e-09 -7.91646e-10 -8.37635e-11 10.2786 0.731801 0.0259123 -1.0041e-09 -7.91648e-10 -8.37619e-11 2.22167 -0.733487 -0.20892 -7.38617e-14 4.05517e-14 -8.27348e-14 -99.1649 36.8985 27.9046 22.0209 -15.7896 -43.8426 0.155072 -11.2024 1.59471 8.04285e-11 -1.01954e-10 3.34273e-10 1.34285e-10 -1.78629e-10 5.79634e-10 8.04257e-11 -1.01951e-10 3.34284e-10 -7.73091 5.47488 -0.417314 8.04313e-11 -1.0195e-10 3.34271e-10 -2.90554 0.965183 -0.102902 8.04196e-11 -1.01951e-10 3.34273e-10 -10.2786 0.731801 -0.0259123 8.04331e-11 -1.01949e-10 3.34267e-10 -2.22167 -0.733487 0.20892 -2.03217e-16 0.0 -3.88251e-19 -3.6896 -39.9057 -12.6672 -1.10504 60.5786 1.54019 -2.25958 17.354 8.49078 2.03217e-16 0.0 3.88251e-19 -2.37959 -37.4948 -6.04126 0.71967 52.8061 -1.03526 0.263348 3.55431 -6.00347
32.9757 85.1148 9.83419 -0.4436 1.6585 6.9955 0.0752507 7.59536 6.14205 2.51515 3.13657 1.68379 0.879309 5.14468 -3.6982 0.851569 24.2955 -7.25531 -0.0 0.0 0.0 -0.0 0.0 0.0 -4.86023e-14 6.89795e-14 -4.59635e-14 33.3206 54.6124 41.6991 -17.7631 -54.8916 119.403 -0.421307 -18.1386 -2.63888 -8.1198e-10 -6.89061e-10 -3.14819e-11 -1.40224e-09 -1.17916e-09 -6.63553e-11 -8.11993e-10 -6.89056e-10 -3.14926e-11 7.73091 5.47488 0.417314 -8.11981e-10 -6.89054e-10 -3.14879e-11 2.90554 0.965183 0.102902 -8.11973e-10 -6.89057e-10 -3.14789e-11 10.2786 0.731801 0.0259123 -8.11984e-10 -6.89061e-10 -3.14767e-11 2.22167 -0.733487 -0.20892 -4.86489e-14 6.89767e-14 -4.60625e-14 -99.0535 36.9876 28.0373 22.1078 -15.9206 -44.0794 0.173649 -11.82 1.68523 -7.45085e-11 -1.96969e-10 3.92595e-10 -1.33821e-10 -3.44018e-10 6.80713e-10 -7.45097e-11 -1.96965e-10 3.92605e-10 -7.73091 5.47488 -0.417314 -7.45055e-11 -1.96965e-10 3.92592e-10 -2.90554 0.965183 -0.102902 -7.45179e-11 -1.96965e-10 3.92592e-10 -10.2786 0.731801 -0.0259123 -7.45053e-11 -1.96964e-10 3.92586e-10 -2.22167 -0.733487 0.20892 -2.03217e-16 0.0 -3.88251e-19 -6.26925 -42.619 -14.4589 -1.33703 63.665 1.77011 -2.42525 20.0965 7.69089 2.03217e-16 0.0 3.88251e-19 -3.4344 -35.9077 -6.14255 0.624156 50.2633 -0.929822 0.247485 2.90106 -5.50638
33.2786 85.1619 10.0772 0.5442 1.2659 7.1419 -1.09902 7.4957 6.13406 2.50831 3.14588 1.66013 0.793104 5.01751 -3.64027 0.909919 24.2177 -7.15441 -0.0 0.0 0.0 -0.0 0.0 0.0 -3.73603e-14 8.90577e-14 -1.74434e-14 33.0827 54.6545 41.9974 -17.71 -54.9243 119.522 -0.424365 -18.2017 -2.64869 -6.55535e-10 -6.36152e-10 5.23519e-11 -1.13325e-09 -1.09156e-09 8.12194e-11 -6.55547e-10 -6.36148e-10 5.23424e-11 7.73091 5.47488 0.417314 -6.55536e-10 -6.36145e-10 5.23456e-11 2.90554 0.965183 0.102902 -6.55527e-10 -6.36148e-10 5.23551e-11 10.2786 0.731801 0.0259123 -6.55538e-10 -6.36152e-10 5.23583e-11 2.22167 -0.733487 -0.20892 -3.73852e-14 8.90532e-14 -1.75427e-14 -98.9562 37.1228 28.1768 22.1656 -16.008 -44.2395 0.185127 -12.1687 1.73664 -6.50706e-11 -2.2491e-10 4.03574e-10 -1.17481e-10 -3.92598e-10 7.00469e-10 -6.5071e-11 -2.24904e-10 4.03584e-10 -7.73091 5.47488 -0.417314 -6.50675e-11 -2.24905e-10 4.03571e-10 -2.90554 0.965183 -0.102902 -6.50798e-11 -2.24905e-10 4.03571e-10 -10.2786 0.731801 -0.0259123 -6.50684e-11 -2.24904e-10 4.03565e-10 -2.22167 -0.733487 0.20892 -2.03217e-16 0.0 -3.88251e-19 -8.74697 -45.0278 -16.2536 -1.59307 66.3453 2.01886 -2.47515 21.9829 7.08506 2.03217e-16 0.0 3.88251e-19 -4.24282 -34.3171 -6.0133 0.546426 47.877 -0.843402 0.209844 2.05754 -5.23641
33.5514 85.1447 10.3523 1.391 0.9201 7.2169 -2.05522 7.40762 6.13241 2.47567 3.15153 1.64417 0.7096 4.91907 -3.59966 0.923272 24.0981 -7.07473 -0.0 0.0 0.0 -0.0 0.0 0.0 -5.64647e-14 1.0004e-13 -1.07429e-15 32.8965 54.6904 42.2044 -17.6685 -54.9497 119.614 -0.421768 -18.1487 -2.64043 -5.76605e-10 -7.14091e-10 2.30192e-10 -1.00088e-09 -1.2325e-09 3.90766e-10 -5.76613e-10 -7.14088e-10 2.3018e-10 7.73091 5.47488 0.417314 -5.76605e-10 -7.14086e-10 2.30186e-10 2.90554 0.965183 0.102902 -5.76596e-10 -7.14088e-10 2.30195e-10 10.2786 0.731801 0.0259123 -5.76608e-10 -7.1409e-10 2.302e-10 2.22167 -0.733487 -0.20892 -5.64735e-14 1.00036e-13 -1.19038e-15 -98.894 37.3371 28.341 22.191 -16.0464 -44.3108 0.185519 -12.1675 1.73656 3.0164e-10 -1.34374e-10 3.48157e-10 5.16731e-10 -2.34903e-10 6.06888e-10 3.01639e-10 -1.34368e-10 3.48165e-10 -7.73091 5.47488 -0.417314 3.01643e-10 -1.34369e-10 3.48154e-10 -2.90554 0.965183 -0.102902 3.01632e-10 -1.34369e-10 3.48154e-10 -10.2786 0.731801 -0.0259123 3.01641e-10 -1.34369e-10 3.48147e-10 -2.22167 -0.733487 0.20892 -2.03217e-16 0.0 -3.88251e-19 -11.0163 -47.1177 -18.0237 -1.86501 68.5918 2.27488 -2.42065 22.6499 6.66731 2.03217e-16 0.0 3.88251e-19 -4.78057 -32.6757 -5.63837 0.481242 45.6228 -0.77203 0.13551 0.980606 -5.23523
33.7895 85.0585 10.6576 2.0822 0.624 7.2215 -2.86811 7.31466 6.12907 2.42463 3.15441 1.63159 0.626297 4.83795 -3.57404 0.914332 23.94 -7.01728 -0.0 0.0 0.0 -0.0 0.0 0.0 -8.83154e-14 1.02177e-13 6.33316e-15 32.7633 54.7248 42.3302 -17.6285 -54.9741 119.702 -0.414812 -18.0055 -2.61813 -5.12573e-10 -8.36403e-10 4.57758e-10 -8.95797e-10 -1.4519e-09 7.86382e-10 -5.12575e-10 -8.36405e-10 4.57742e-10 7.73091 5.47488 0.417314 -5.12573e-10 -8.36403e-10 4.57752e-10 2.90554 0.965183 0.102902 -5.12564e-10 -8.36403e-10 4.5776e-10 10.2786 0.731801 0.0259123 -5.12577e-10 -8.36402e-10 4.57767e-10 2.22167 -0.733487 -0.20892 -8.83106e-14 1.02174e-13 6.18717e-15 -98.8653 37.6301 28.5541 22.1956 -16.0533 -44.324 0.178616 -11.9391 1.703 8.72743e-10 3.36054e-11 2.42629e-10 1.50459e-09 5.76665e-11 4.27403e-10 8.72741e-10 3.36095e-11 2.42634e-10 -7.73091 5.47488 -0.417314 8.72746e-10 3.36087e-11 2.42627e-10 -2.90554 0.965183 -0.102902 8.72737e-10 3.36083e-11 2.42626e-10 -10.2786 0.731801 -0.0259123 8.72745e-10 3.36082e-11 2.42619e-10 -2.22167 -0.733487 0.20892 -2.03217e-16 0.0 -3.88251e-19 -13.1822 -48.9832 -19.8268 -2.15167 70.5186 2.53865 -2.29083 22.3968 6.32381 2.03217e-16 0.0 3.88251e-19 -5.16182 -30.9741 -5.09845 0.424145 43.4374 -0.71065 0.0323436 -0.199788 -5.40883
33.9948 84.9068 10.9905 2.6342 0.3821 7.165 -3.57896 7.23049 6.11495 2.36618 3.14296 1.61855 0.569534 4.77699 -3.55516 0.880947 23.7645 -6.9711 -0.0 0.0 0.0 -0.0 0.0 0.0 -1.09205e-13 9.69578e-14 1.14064e-14 32.6935 54.7522 42.3885 -17.5924 -54.9961 119.782 -0.406971 -17.8413 -2.59261 -4.16247e-10 -8.85318e-10 6.27733e-10 -7.33729e-10 -1.5433e-09 1.0826e-09 -4.16243e-10 -8.85325e-10 6.27713e-10 7.73091 5.47488 0.417314 -4.16247e-10 -8.85322e-10 6.27728e-10 2.90554 0.965183 0.102902 -4.16238e-10 -8.85321e-10 6.27734e-10 10.2786 0.731801 0.0259123 -4.16251e-10 -8.85316e-10 6.27744e-10 2.22167 -0.733487 -0.20892 -1.09192e-13 9.69567e-14 1.1229e-14 -98.8261 37.9272 28.76 22.1807 -16.0306 -44.2824 0.16757 -11.5741 1.64942 1.32888e-09 1.9415e-10 1.17649e-10 2.29406e-09 3.37364e-10 2.13474e-10 1.32888e-09 1.94152e-10 1.17653e-10 -7.73091 5.47488 -0.417314 1.32888e-09 1.94152e-10 1.17649e-10 -2.90554 0.965183 -0.102902 1.32888e-09 1.94151e-10 1.17647e-10 -10.2786 0.731801 -0.0259123 1.32888e-09 1.94151e-10 1.17639e-10 -2.22167 -0.733487 0.20892 -2.03217e-16 0.0 -3.88251e-19 -15.2483 -50.6129 -21.5684 -2.43246 72.1021 2.7977 -2.183 21.8046 6.17144 2.03217e-16 0.0 3.88251e-19 -5.44084 -29.3157 -4.41246 0.376445 41.4233 -0.659131 -0.108668 -1.48009 -5.73593
34.1723 84.696 11.3455 3.0833 0.2049 7.0593 -4.22905 7.16877 6.08099 2.31127 3.10559 1.60121 0.565703 4.73901 -3.5348 0.82099 23.5929 -6.92526 -0.0 0.0 0.0 -0.0 0.0 0.0 -9.54256e-14 8.5875e-14 2.0773e-14 32.6975 54.7668 42.3932 -17.5625 -55.0142 119.848 -0.401511 -17.725 -2.57459 -2.40434e-10 -7.43067e-10 6.328e-10 -4.30387e-10 -1.30025e-09 1.09397e-09 -2.40427e-10 -7.43075e-10 6.32778e-10 7.73091 5.47488 0.417314 -2.40435e-10 -7.43073e-10 6.32797e-10 2.90554 0.965183 0.102902 -2.40425e-10 -7.4307e-10 6.32801e-10 10.2786 0.731801 0.0259123 -2.40438e-10 -7.43065e-10 6.32813e-10 2.22167 -0.733487 -0.20892 -9.5414e-14 8.5875e-14 2.05742e-14 -98.7302 38.1548 28.9004 22.1474 -15.9803 -44.1897 0.155307 -11.1627 1.58917 1.35069e-09 2.62383e-10 3.8771e-12 2.3331e-09 4.56441e-10 1.65588e-11 1.35069e-09 2.62384e-10 3.88028e-12 -7.73091 5.47488 -0.417314 1.35069e-09 2.62384e-10 3.8771e-12 -2.90554 0.965183 -0.102902 1.35069e-09 2.62383e-10 3.87551e-12 -10.2786 0.731801 -0.0259123 1.35069e-09 2.62383e-10 3.86755e-12 -2.22167 -0.733487 0.20892 -2.03217e-16 0.0 -3.88251e-19 -17.1996 -52.0029 -23.1377 -2.68073 73.319 3.03339 -2.17529 21.456 6.31916 2.03217e-16 0.0 3.88251e-19 -5.66361 -27.8046 -3.59349 0.33915 39.6832 -0.617111 -0.296261 -2.85659 -6.1958
